# xmcd
#
# Track frame offsets: 
#        150
#        3186
#        22381
#        42470
#        64303
#        96419
#        108921
#        138905
#        170683
#        198686
#        214077
#        232903
#        252104
#        271754
#
# Disc length: 3889 seconds
#
# Revision: 1
# Processed by: cddbd v1.5.2PL0 Copyright (c) Steve Scherf et al.
# Submitted via: ExactAudioCopy v0.95b4
#
DISCID=c80f2f0e
DTITLE=Korál - Maradj Velem
DYEAR=1997
DGENRE=Rock
TTITLE0=Bevezetõ
TTITLE1=Hangoddal ébreszt a szél
TTITLE2=Fekete bárány
TTITLE3=A szeretet koldusai
TTITLE4=Anyám, vígasztalj engem
TTITLE5=Kölykök a hátsó udvarból
TTITLE6=Ne állj meg soha
TTITLE7=Évszakok, gyertyák a téren, túl az elsõ éjszakán
TTITLE8=A kõfalak leomlanak
TTITLE9=Kergesd el a felhõt a házamról
TTITLE10=Kevés voltam Neked
TTITLE11=Homok a szélben
TTITLE12=Maradj velem
TTITLE13=Hazafelé
EXTD=
EXTT0=
EXTT1=
EXTT2=
EXTT3=
EXTT4=
EXTT5=
EXTT6=
EXTT7=
EXTT8=
EXTT9=
EXTT10=
EXTT11=
EXTT12=
EXTT13=
PLAYORDER=
